HIERARCHY
ROOT Hips
{
    OFFSET 0.000000 0.000000 0.000000
    CHANNELS 6 Xposition Yposition Zposition Zrotation Xrotation Yrotation
    JOINT Spine
    {
        OFFSET -0.000000 14.517291 0.000000
        CHANNELS 3 Zrotation Xrotation Yrotation
        JOINT Spine1
        {
            OFFSET -0.000000 37.558300 0.000000
            CHANNELS 3 Zrotation Xrotation Yrotation
            JOINT Neck
            {
                OFFSET -0.000000 37.404057 3.400369
                CHANNELS 3 Zrotation Xrotation Yrotation
                JOINT Head
                {
                    OFFSET -0.000000 24.785618 -3.540803
                    CHANNELS 3 Zrotation Xrotation Yrotation
                    End Site
                    {
                        OFFSET -0.000000 35.408028 0.000000
                    }
                }
            }
            JOINT LeftShoulder
            {
                OFFSET 6.992933 33.973492 -0.192664
                CHANNELS 3 Zrotation Xrotation Yrotation
                JOINT LeftArm
                {
                    OFFSET 21.527611 0.000000 0.000000
                    CHANNELS 3 Zrotation Xrotation Yrotation
                    JOINT LeftForeArm
                    {
                        OFFSET 56.353916 0.000000 0.000000
                        CHANNELS 3 Zrotation Xrotation Yrotation
                        JOINT LeftHand
                        {
                            OFFSET 47.774071 0.000000 0.000000
                            CHANNELS 3 Zrotation Xrotation Yrotation
                            End Site
                            {
                                OFFSET 26.556021 0.000000 0.000000
                            }
                        }
                    }
                }
            }
            JOINT RightShoulder
            {
                OFFSET -7.065357 33.973492 -0.192664
                CHANNELS 3 Zrotation Xrotation Yrotation
                JOINT RightArm
                {
                    OFFSET -21.527611 0.000000 0.000000
                    CHANNELS 3 Zrotation Xrotation Yrotation
                    JOINT RightForeArm
                    {
                        OFFSET -56.353916 0.000000 0.000000
                        CHANNELS 3 Zrotation Xrotation Yrotation
                        JOINT RightHand
                        {
                            OFFSET -47.774071 0.000000 0.000000
                            CHANNELS 3 Zrotation Xrotation Yrotation
                            End Site
                            {
                                OFFSET -26.556021 0.000000 0.000000
                            }
                        }
                    }
                }
            }
        }
    }
    JOINT LeftUpLeg
    {
        OFFSET 17.704014 0.000000 0.000000
        CHANNELS 3 Zrotation Xrotation Yrotation
        JOINT LeftLeg
        {
            OFFSET -0.000000 -81.181816 0.000000
            CHANNELS 3 Zrotation Xrotation Yrotation
            JOINT LeftFoot
            {
                OFFSET -0.000000 -62.821102 0.000000
                CHANNELS 3 Zrotation Xrotation Yrotation
                JOINT LeftToeBase
                {
                    OFFSET -0.000000 -11.507608 26.556021
                    CHANNELS 3 Zrotation Xrotation Yrotation
                    End Site
                    {
                        OFFSET -0.000000 0.000000 7.081605
                    }
                }
            }
        }
    }
    JOINT RightUpLeg
    {
        OFFSET -17.704014 0.000000 0.000000
        CHANNELS 3 Zrotation Xrotation Yrotation
        JOINT RightLeg
        {
            OFFSET -0.000000 -81.181816 0.000000
            CHANNELS 3 Zrotation Xrotation Yrotation
            JOINT RightFoot
            {
                OFFSET -0.000000 -62.821102 0.000000
                CHANNELS 3 Zrotation Xrotation Yrotation
                JOINT RightToeBase
                {
                    OFFSET -0.000000 -11.507608 26.556021
                    CHANNELS 3 Zrotation Xrotation Yrotation
                    End Site
                    {
                        OFFSET -0.000000 0.000000 7.081605
                    }
                }
            }
        }
    }
}
MOTION
Frames:    12
Frame Time:    0.008333
19.937695    152.150757    -13.839894    2.666940    2.721318    3.934397    8.964308    1.871659    10.082073    1.084873    -2.109405    3.433314    13.703846    -6.795866    5.222280    -8.983578    16.104448    2.552632    4.619186    3.560134    -10.746200    -41.452499    18.922058    -48.119431    -3.266289    -26.800190    -124.993576    0.730768    -32.286659    -4.245719    -14.320533    -0.919101    5.337866    29.487635    -17.760748    72.695175    3.364595    -19.199261    8.070042    11.432899    -15.491674    39.520203    -4.684207    -35.972973    -25.983856    -13.451151    25.277937    -15.244550    -6.480945    4.161054    40.425373    0.000000    0.000000    0.000000    -5.349600    3.178391    -29.431110    2.695414    34.983055    -8.669814    7.189931    -34.773510    -8.541477    0.000000    0.000000    0.000000    
19.568460    152.204269    -13.784380    2.538049    2.713569    3.991887    8.665556    1.911054    10.166839    0.916795    -2.183584    3.458224    13.530811    -6.805702    5.075065    -8.688009    16.034126    2.429445    4.629831    3.523908    -10.780208    -41.332966    18.980257    -48.308048    -3.290542    -26.778603    -125.037384    0.790162    -32.312649    -4.249942    -14.369106    -0.855809    5.400353    29.343166    -17.707821    72.629395    3.183244    -19.343493    7.900257    11.566962    -15.576724    39.504971    -4.426600    -35.982925    -25.906185    -13.425835    25.334435    -15.284360    -6.580499    4.051042    40.375412    0.000000    0.000000    0.000000    -4.997734    3.296646    -29.443022    2.690952    34.688992    -8.659187    7.028119    -34.656185    -8.631700    0.000000    0.000000    0.000000    
19.199730    152.263657    -13.725498    2.435395    2.731816    4.012002    8.371281    1.915619    10.280026    0.689096    -2.215333    3.490098    13.391947    -6.843766    4.933213    -8.397687    15.974267    2.302452    4.681399    3.433551    -10.776801    -41.247700    19.015274    -48.479851    -3.355114    -26.675451    -125.107056    0.865068    -32.330593    -4.181576    -14.412304    -0.827844    5.436433    29.316219    -17.730831    72.617752    3.141529    -19.414459    7.721535    11.566265    -15.643808    39.487885    -4.167062    -35.996128    -25.792664    -13.404042    25.349157    -15.293110    -6.639001    3.981544    40.321671    0.000000    0.000000    0.000000    -4.641665    3.445265    -29.389103    2.695934    34.247360    -8.636303    6.821946    -34.574402    -8.764087    0.000000    0.000000    0.000000    
18.828697    152.328094    -13.669586    2.335788    2.759245    4.037450    8.073699    1.920552    10.393944    0.451189    -2.257483    3.521881    13.260375    -6.880947    4.792230    -8.066413    15.893699    2.174000    4.739837    3.349184    -10.720120    -41.146812    19.099571    -48.708847    -3.393046    -26.601566    -125.138023    0.884646    -32.326942    -4.186806    -14.425452    -0.855887    5.486387    29.274300    -17.719101    72.555237    3.100180    -19.457638    7.571735    11.566168    -15.682474    39.477360    -3.914700    -36.008968    -25.697697    -13.374032    25.343397    -15.299584    -6.747734    3.897580    40.272766    0.000000    0.000000    0.000000    -4.321156    3.503935    -29.381536    2.667089    33.981762    -8.609803    6.681366    -34.442245    -8.869067    0.000000    0.000000    0.000000    
18.463444    152.391357    -13.614247    2.234387    2.790738    4.080205    7.805923    1.901213    10.487854    0.202065    -2.257620    3.546167    13.141488    -6.935902    4.658274    -7.783011    15.811527    2.048356    4.787426    3.271633    -10.704928    -41.040428    19.104156    -48.872822    -3.446071    -26.503429    -125.213425    0.982834    -32.332966    -4.136989    -14.456334    -0.902687    5.545898    29.203924    -17.679134    72.483955    2.985935    -19.537289    7.426876    11.594281    -15.740007    39.505001    -3.681459    -36.025871    -25.638803    -13.344651    25.334465    -15.275546    -6.827718    3.840845    40.208286    0.000000    0.000000    0.000000    -4.000880    3.560922    -29.368942    2.643693    33.718380    -8.609507    6.576762    -34.299988    -8.962946    0.000000    0.000000    0.000000    
18.108091    152.455734    -13.553223    2.142123    2.808162    4.130535    7.570048    1.891521    10.553349    -0.060645    -2.212940    3.561249    12.877561    -7.034623    4.518956    -7.332093    15.722731    1.943999    4.791463    3.135474    -10.585903    -40.855339    19.207405    -49.083942    -3.483988    -26.509415    -125.276733    1.018602    -32.409897    -4.161134    -14.580121    -0.939087    5.591793    29.236553    -17.709890    72.506401    2.908630    -19.615414    7.270516    11.540742    -15.834160    39.465740    -3.481692    -36.027187    -25.579117    -13.280125    25.348614    -15.282058    -6.923721    3.768438    40.139915    0.000000    0.000000    0.000000    -3.693821    3.638841    -29.363264    2.632180    33.447662    -8.637768    6.453575    -34.149399    -9.033097    0.000000    0.000000    0.000000    
17.744871    152.528259    -13.485202    2.053100    2.823586    4.167752    7.284784    1.922684    10.665901    -0.309165    -2.283130    3.592695    12.740015    -7.098885    4.366594    -6.955815    15.668544    1.805734    4.834594    3.071359    -10.587024    -40.795006    19.182425    -49.201439    -3.589831    -26.314533    -125.377029    1.057259    -32.413151    -4.145337    -14.584403    -0.947259    5.634085    29.195984    -17.730684    72.457138    2.872081    -19.690155    7.143308    11.579993    -15.892859    39.453285    -3.270750    -36.007774    -25.515917    -13.202380    25.328978    -15.324677    -7.022436    3.703692    40.102558    0.000000    0.000000    0.000000    -3.383663    3.715166    -29.351284    2.601571    33.174091    -8.656096    6.370439    -33.981827    -9.106517    0.000000    0.000000    0.000000    
17.390398    152.592590    -13.424213    1.980442    2.860551    4.210130    6.975601    1.925229    10.764910    -0.523127    -2.332543    3.619283    12.566091    -7.128576    4.193011    -6.578576    15.514824    1.651626    4.841660    2.966667    -10.539012    -40.666183    19.283588    -49.363800    -3.621429    -26.252439    -125.439735    1.134942    -32.416908    -4.152752    -14.634490    -1.010071    5.701904    29.108536    -17.658939    72.347046    2.717749    -19.814756    7.040267    11.642552    -15.989278    39.430202    -3.075563    -36.013432    -25.493240    -13.165697    25.293741    -15.350499    -7.121737    3.645227    40.107788    0.000000    0.000000    0.000000    -3.099031    3.759479    -29.357893    2.558433    32.929798    -8.666346    6.290857    -33.830460    -9.173590    0.000000    0.000000    0.000000    
17.024826    152.660889    -13.349208    1.894599    2.856131    4.251658    6.694643    1.970402    10.858286    -0.757975    -2.376492    3.644480    12.363255    -7.180238    4.006952    -6.143854    15.374432    1.490678    4.875426    2.882490    -10.474218    -40.571014    19.303047    -49.519028    -3.700344    -26.120707    -125.538719    1.169681    -32.436424    -4.110080    -14.684938    -1.062671    5.764485    28.985815    -17.600922    72.229439    2.585222    -19.972916    6.977397    11.670234    -16.131739    39.433041    -2.860538    -35.970997    -25.473124    -13.121221    25.257832    -15.404766    -7.212260    3.572840    40.135208    0.000000    0.000000    0.000000    -2.797030    3.850478    -29.365025    2.517480    32.677662    -8.676004    6.232527    -33.656399    -9.222147    0.000000    0.000000    0.000000    
16.675680    152.724854    -13.281199    1.825271    2.873528    4.298917    6.394430    1.980628    10.939533    -0.964724    -2.415507    3.665254    12.201168    -7.189380    3.847989    -5.791265    15.197865    1.352432    4.907036    2.809426    -10.444830    -40.461960    19.343357    -49.661678    -3.729536    -26.067467    -125.611977    1.156643    -32.443905    -4.119766    -14.810963    -1.179515    5.794663    29.027985    -17.491287    72.160583    2.440209    -20.048470    6.875013    11.702371    -16.190474    39.403404    -2.682356    -35.941555    -25.500963    -13.072020    25.200169    -15.410771    -7.276172    3.541132    40.126675    0.000000    0.000000    0.000000    -2.565828    3.860359    -29.363142    2.513272    32.586273    -8.649853    6.163193    -33.468937    -9.344637    0.000000    0.000000    0.000000    
16.313709    152.791016    -13.206095    1.755397    2.912236    4.358798    6.088596    1.975754    11.029377    -1.208168    -2.465263    3.687521    12.092468    -7.286652    3.674280    -5.412903    15.122937    1.184352    4.989390    2.708836    -10.405574    -40.424362    19.371693    -49.786121    -3.819881    -25.874525    -125.715027    1.261258    -32.428165    -4.044701    -14.797494    -1.265111    5.877264    28.899940    -17.427464    72.006859    2.291354    -20.219707    6.812099    11.732276    -16.342516    39.428932    -2.498027    -35.930729    -25.559052    -13.050630    25.121832    -15.419266    -7.360629    3.505104    40.159225    0.000000    0.000000    0.000000    -2.312071    3.872261    -29.408600    2.480821    32.436398    -8.663993    6.144567    -33.285774    -9.401507    0.000000    0.000000    0.000000    
15.956195    152.860123    -13.127213    1.683599    2.930997    4.415987    5.758774    1.989101    11.119115    -1.355139    -2.528073    3.711672    11.865657    -7.257761    3.472624    -4.995750    14.880833    1.019483    4.994292    2.639454    -10.352274    -40.321781    19.433519    -49.946869    -3.881102    -25.789574    -125.795349    1.229087    -32.460037    -4.062858    -14.850851    -1.272116    5.972242    28.791317    -17.451466    71.879936    2.162770    -20.364914    6.779058    11.798897    -16.466398    39.370895    -2.305570    -35.894093    -25.596922    -13.020374    25.037788    -15.465110    -7.441965    3.467029    40.212482    0.000000    0.000000    0.000000    -2.041503    3.931640    -29.445385    2.444759    32.215080    -8.639296    6.079276    -33.094357    -9.506295    0.000000    0.000000    0.000000    
